<svg width="716" height="131" viewBox="0 0 716 131" fill="none" xmlns="http://www.w3.org/2000/svg">
<g clip-path="url(#clip0_7_2379)">
<path d="M65 0C69.2159 1.64393 72.0302 4.76355 75.1455 7.91846C76.0535 8.82598 76.0535 8.82598 76.9798 9.75183C78.9757 11.7491 80.9644 13.7534 82.9531 15.7578C84.337 17.1454 85.7214 18.5326 87.1061 19.9194C90.747 23.5679 94.3819 27.2224 98.0155 30.8782C101.725 34.6086 105.441 38.3334 109.156 42.0586C116.443 49.3669 123.724 56.6814 131 64C127.122 68.6385 123.1 73.0425 118.811 77.3025C118.225 77.8887 117.639 78.475 117.035 79.079C115.122 80.9912 113.206 82.8999 111.289 84.8086C109.952 86.1436 108.616 87.4788 107.279 88.8142C103.78 92.3098 100.277 95.8024 96.7743 99.2944C93.1928 102.866 89.6141 106.44 86.0352 110.014C79.0262 117.012 72.0141 124.007 65 131C60.4304 127.176 56.0791 123.222 51.8811 118.995C51.3144 118.428 50.7476 117.861 50.1637 117.278C48.3164 115.43 46.4726 113.578 44.6289 111.727C43.3388 110.435 42.0484 109.143 40.7578 107.851C37.3806 104.47 34.0063 101.086 30.6328 97.7014C27.1821 94.2405 23.7286 90.7825 20.2754 87.3242C13.5141 80.5523 6.75605 73.7771 0 67C1.65014 62.7444 4.82944 59.9042 8.01025 56.7627C8.62502 56.1476 9.23979 55.5326 9.87318 54.8989C11.9029 52.8705 13.9397 50.8493 15.9766 48.8281C17.3866 47.4218 18.7962 46.015 20.2054 44.6078C23.9131 40.9078 27.6268 37.2137 31.3417 33.5209C35.1325 29.7507 38.9176 25.9747 42.7031 22.1992C50.1299 14.7939 57.5629 7.39497 65 0ZM35 65C40.0683 70.9132 40.0683 70.9132 45.4375 76.4375C48.899 79.8526 52.1293 83.3806 55.293 87.0703C58.0529 90.1903 61.0234 93.0889 64 96C69.0918 91.6951 74.0205 87.2576 78.875 82.6875C79.5717 82.0325 80.2685 81.3775 80.9863 80.7026C88.6773 73.5348 88.6773 73.5348 96 66C96 65.67 96 65.34 96 65C75.87 65 55.74 65 35 65Z" fill="#F2B65F"/>
<path d="M697.625 24.625C708.44 32.3772 713.821 42.0877 716 55C716.278 58.1316 716.334 61.2322 716.312 64.375C716.308 65.2043 716.304 66.0335 716.3 66.8879C716.182 73.2901 715.368 79.0091 713 85C712.745 85.6884 712.49 86.3767 712.227 87.0859C708.412 95.9395 701.342 103.28 692.52 107.102C681.534 111.019 669.153 111.342 658.375 106.414C648.54 100.559 641.853 92.0038 638.125 81.25C636.751 75.5311 636.686 69.791 636.625 63.9375C636.611 63.0155 636.597 62.0935 636.583 61.1436C636.669 48.6927 641.113 36.8875 650 28C664.281 17.5951 682.165 15.1274 697.625 24.625ZM657.625 40.1875C656.223 42.0192 656.223 42.0192 655 44C654.588 44.6497 654.175 45.2994 653.75 45.9688C648.844 55.6452 649.277 70.0821 652.562 80.25C655.341 86.4937 659.318 91.3373 665.125 94.9375C672.529 97.6737 679.376 97.766 686.797 95.0274C694.352 91.5042 698.073 85.6329 701 78C703.873 67.3067 703.251 53.469 697.746 43.7969C693.776 37.9557 688.688 34.2293 682 32C672.415 30.8836 664.374 33.0497 657.625 40.1875Z" fill="black"/>
<path d="M298 20C302.29 20 306.58 20 311 20C311.33 33.53 311.66 47.06 312 61C318.131 54.3114 323.903 47.9465 329.531 40.9414C333.058 36.7396 336.801 32.753 340.572 28.77C341.368 27.9267 341.368 27.9267 342.18 27.0664C342.686 26.5377 343.193 26.009 343.715 25.4643C345.144 23.9431 345.144 23.9431 346.309 21.6054C348.851 19.1923 351.261 19.5938 354.662 19.6484C355.912 19.6987 355.912 19.6987 357.187 19.75C358.032 19.768 358.877 19.7861 359.748 19.8047C361.832 19.8518 363.916 19.9235 366 20C361.26 26.7718 355.763 32.6588 350.117 38.6679C347.216 41.7559 344.401 44.9064 341.633 48.1132C338.462 51.7773 335.224 55.3825 332 59C333.27 62.4938 334.727 65.2471 336.984 68.1953C337.583 68.9848 338.182 69.7742 338.8 70.5876C339.443 71.4249 340.087 72.2623 340.75 73.125C342.105 74.9096 343.459 76.6948 344.812 78.4804C345.505 79.391 346.197 80.3016 346.91 81.2397C350.223 85.6149 353.49 90.0226 356.75 94.4375C357.334 95.2233 357.917 96.0092 358.518 96.8188C361.202 100.454 363.774 104.058 366 108C359.983 109.023 353.923 109.888 348 108C343.185 104.355 340.43 98.671 337.495 93.5122C334.906 89.1612 331.875 85.1357 328.875 81.0625C328.318 80.2879 327.76 79.5133 327.186 78.7153C324.302 74.6834 324.302 74.6834 321 71C315.278 76.0092 311.48 80.0821 310.902 87.8828C310.869 90.2967 310.882 92.7115 310.937 95.125C310.93 96.3676 310.923 97.6103 310.916 98.8906C310.904 101.927 310.947 104.964 311 108C306.38 108 301.76 108 297 108C296.977 96.6739 296.959 85.3477 296.948 74.0216C296.943 68.763 296.936 63.5044 296.924 58.2458C296.914 53.1754 296.908 48.1051 296.905 43.0347C296.903 41.0957 296.9 39.1567 296.894 37.2177C296.887 34.5117 296.886 31.8058 296.886 29.0998C296.883 28.2899 296.879 27.48 296.875 26.6455C296.886 21.114 296.886 21.114 298 20Z" fill="black"/>
<path d="M271.375 24.875C275.877 28.5513 279.34 32.3273 281 38C281.03 39.9997 281.033 42.0002 281 44C276.578 44.4662 272.403 44.7133 268 44C265.993 42.1323 265.119 40.4373 263.945 37.9765C262.506 34.9666 261.112 34.1502 258 33C250.897 31.559 244.525 31.5743 238 35C235.224 37.1925 234.497 38.8895 234.062 42.375C233.835 45.5656 233.929 46.8468 235.312 49.8125C241.411 54.7765 249.192 56.3741 256.625 58.5C266.868 61.4369 274.824 64.7364 281 74C283.209 80.8417 283.556 87.2465 281 94C277.072 101.42 271.803 105.657 263.938 108.375C252.362 111.551 240.322 111.167 229.496 105.746C223.101 101.879 219.358 97.0735 217 90C217 87.69 217 85.38 217 83C221.62 83 226.24 83 231 83C231.392 84.2375 231.784 85.475 232.188 86.75C233.669 90.7183 235.343 92.7146 239 95C245.652 97.2174 255.245 97.2828 261.75 94.4375C265.545 92.0978 266.884 89.3135 268 85C268 81.2591 267.602 79.6818 265.125 76.875C259.494 73.4963 253.31 71.6792 247.043 69.8125C225.971 63.521 225.971 63.521 219.688 52.75C217.882 45.5295 218.524 38.5816 222 32C226.269 25.114 233.741 21.3786 241.488 19.3476C252.132 17.8744 262.458 18.5035 271.375 24.875Z" fill="black"/>
<path d="M402 20C407.28 20 412.56 20 418 20C424.695 37.6541 431.118 55.3961 437.438 73.1875C438.782 76.9696 440.128 80.7514 441.474 84.5328C442.302 86.8585 443.129 89.1846 443.955 91.511C444.326 92.5544 444.697 93.5977 445.08 94.6726C445.565 96.0396 445.565 96.0396 446.061 97.4342C446.703 99.1882 447.392 100.925 448.12 102.645C449 105 449 105 449 108C444.05 108 439.1 108 434 108C432.828 104.731 431.662 101.46 430.5 98.1875C430.166 97.2587 429.832 96.33 429.488 95.373C429.172 94.4804 428.857 93.5877 428.531 92.668C428.238 91.8458 427.945 91.0236 427.643 90.1765C427 88 427 88 427 85C415.78 85 404.56 85 393 85C392.01 88.63 391.02 92.26 390 96C388.729 100.024 387.363 104.005 386 108C381.05 108 376.1 108 371 108C372.435 100.664 374.7 93.8678 377.289 86.8633C377.922 85.1295 377.922 85.1295 378.568 83.3606C379.915 79.676 381.27 75.9942 382.625 72.3125C383.512 69.8902 384.399 67.4676 385.285 65.0449C387.021 60.3018 388.76 55.5599 390.501 50.8188C393.221 43.4063 395.916 35.9844 398.596 28.5572C398.9 27.7174 399.204 26.8777 399.517 26.0125C399.781 25.2814 400.045 24.5504 400.317 23.7973C401 22 401 22 402 20ZM409 38C407.428 42.5003 405.861 47.0027 404.3 51.5071C403.768 53.0392 403.235 54.5708 402.7 56.1018C401.931 58.3021 401.168 60.5043 400.406 62.707C400.166 63.3915 399.925 64.076 399.677 64.7812C398.688 67.6584 398 69.9331 398 73C405.92 73 413.84 73 422 73C419.854 65.1328 417.603 57.5494 414.938 49.875C414.586 48.836 414.235 47.797 413.873 46.7266C413.362 45.2493 413.362 45.2493 412.84 43.7422C412.534 42.8539 412.229 41.9655 411.914 41.0503C411.183 38.8269 411.183 38.8269 409 38Z" fill="black"/>
<path d="M449.702 19.8798C451.51 19.8831 451.51 19.8831 453.356 19.8865C454.351 19.8863 454.351 19.8863 455.366 19.886C457.568 19.8867 459.77 19.8945 461.973 19.9024C463.496 19.9042 465.019 19.9056 466.542 19.9066C470.558 19.9105 474.575 19.9203 478.591 19.9314C482.686 19.9416 486.782 19.9461 490.877 19.9512C498.918 19.9619 506.959 19.979 515 20C515 23.96 515 27.92 515 32C506.09 32 497.18 32 488 32C488 57.08 488 82.16 488 108C483.38 108 478.76 108 474 108C474 82.92 474 57.84 474 32C464.76 32 455.52 32 446 32C446 20.0445 446 20.0445 449.702 19.8798Z" fill="black"/>
<path d="M525 20C547.44 20 569.88 20 593 20C593 23.96 593 27.92 593 32C584.09 32 575.18 32 566 32C566 57.08 566 82.16 566 108C561.38 108 556.76 108 552 108C552 82.92 552 57.84 552 32C543.09 32 534.18 32 525 32C525 28.04 525 24.08 525 20Z" fill="black"/>
<path d="M607 20C611.62 20 616.24 20 621 20C621 49.04 621 78.08 621 108C616.38 108 611.76 108 607 108C607 78.96 607 49.92 607 20Z" fill="black"/>
<path d="M171 0C172.65 0 174.3 0 176 0C176 43.23 176 86.46 176 131C174.35 131 172.7 131 171 131C171 87.77 171 44.54 171 0Z" fill="black"/>
</g>
<defs>
<clipPath id="clip0_7_2379">
<rect width="716" height="131" fill="white"/>
</clipPath>
</defs>
</svg>
