<svg width="280" height="56" viewBox="0 0 280 56" fill="none" xmlns="http://www.w3.org/2000/svg">
<mask id="mask0_74_2847" style="mask-type:luminance" maskUnits="userSpaceOnUse" x="6" y="11" width="30" height="29">
<path d="M6 11H36V22.2778L17.6667 40H6V11Z" fill="white"/>
</mask>
<g mask="url(#mask0_74_2847)">
<path d="M31.8333 11H10.1667C7.86548 11 6 12.8033 6 15.0278V35.9722C6 38.1967 7.86548 40 10.1667 40H31.8333C34.1345 40 36 38.1967 36 35.9722V15.0278C36 12.8033 34.1345 11 31.8333 11Z" fill="url(#paint0_linear_74_2847)"/>
</g>
<mask id="mask1_74_2847" style="mask-type:luminance" maskUnits="userSpaceOnUse" x="14" y="18" width="34" height="34">
<path d="M36 18H48V52H14V40L36 18Z" fill="white"/>
</mask>
<g mask="url(#mask1_74_2847)">
<path d="M39.8333 18H18.1667C15.8655 18 14 19.8655 14 22.1667V43.8333C14 46.1345 15.8655 48 18.1667 48H39.8333C42.1345 48 44 46.1345 44 43.8333V22.1667C44 19.8655 42.1345 18 39.8333 18Z" fill="#1C1C1C"/>
</g>
<path opacity="0.35" d="M36 18L14 40" stroke="#E8B800" stroke-width="0.7"/>
<path d="M58.263 47.33C56.481 47.33 54.754 47.077 53.082 46.571C51.432 46.065 50.123 45.394 49.155 44.558L50.64 41.225C51.586 41.973 52.741 42.589 54.105 43.073C55.491 43.535 56.877 43.766 58.263 43.766C59.979 43.766 61.255 43.491 62.091 42.941C62.949 42.391 63.378 41.665 63.378 40.763C63.378 40.103 63.136 39.564 62.652 39.146C62.19 38.706 61.596 38.365 60.87 38.123C60.144 37.881 59.154 37.606 57.9 37.298C56.14 36.88 54.71 36.462 53.61 36.044C52.532 35.626 51.597 34.977 50.805 34.097C50.035 33.195 49.65 31.985 49.65 30.467C49.65 29.191 49.991 28.036 50.673 27.002C51.377 25.946 52.422 25.11 53.808 24.494C55.216 23.878 56.932 23.57 58.956 23.57C60.364 23.57 61.75 23.746 63.114 24.098C64.478 24.45 65.655 24.956 66.645 25.616L65.292 28.949C64.28 28.355 63.224 27.904 62.124 27.596C61.024 27.288 59.957 27.134 58.923 27.134C57.229 27.134 55.964 27.42 55.128 27.992C54.314 28.564 53.907 29.323 53.907 30.269C53.907 30.929 54.138 31.468 54.6 31.886C55.084 32.304 55.689 32.634 56.415 32.876C57.141 33.118 58.131 33.393 59.385 33.701C61.101 34.097 62.509 34.515 63.609 34.955C64.709 35.373 65.644 36.022 66.414 36.902C67.206 37.782 67.602 38.97 67.602 40.466C67.602 41.742 67.25 42.897 66.546 43.931C65.864 44.965 64.819 45.79 63.411 46.406C62.003 47.022 60.287 47.33 58.263 47.33ZM78.6539 39.443L75.5849 42.347V47H71.4599V22.514H75.5849V37.298L84.1319 29.378H89.0819L81.7229 36.77L89.7749 47H84.7589L78.6539 39.443ZM108.924 29.378V47H104.997V44.723C104.315 45.559 103.468 46.186 102.456 46.604C101.466 47.022 100.366 47.231 99.1562 47.231C97.4402 47.231 95.9002 46.857 94.5362 46.109C93.1942 45.361 92.1382 44.305 91.3682 42.941C90.6202 41.577 90.2462 39.993 90.2462 38.189C90.2462 36.385 90.6202 34.812 91.3682 33.47C92.1382 32.106 93.1942 31.05 94.5362 30.302C95.9002 29.554 97.4402 29.18 99.1562 29.18C100.3 29.18 101.345 29.378 102.291 29.774C103.259 30.17 104.095 30.753 104.799 31.523V29.378H108.924ZM99.6182 43.7C101.136 43.7 102.39 43.194 103.38 42.182C104.37 41.17 104.865 39.839 104.865 38.189C104.865 36.539 104.37 35.208 103.38 34.196C102.39 33.184 101.136 32.678 99.6182 32.678C98.1002 32.678 96.8462 33.184 95.8562 34.196C94.8882 35.208 94.4042 36.539 94.4042 38.189C94.4042 39.839 94.8882 41.17 95.8562 42.182C96.8462 43.194 98.1002 43.7 99.6182 43.7ZM124.221 46.043C123.737 46.439 123.143 46.736 122.439 46.934C121.757 47.132 121.031 47.231 120.261 47.231C118.325 47.231 116.829 46.725 115.773 45.713C114.717 44.701 114.189 43.227 114.189 41.291V25.484H118.314V29.51H123.033V32.81H118.314V41.192C118.314 42.05 118.523 42.71 118.941 43.172C119.381 43.612 119.986 43.832 120.756 43.832C121.68 43.832 122.45 43.59 123.066 43.106L124.221 46.043ZM137.531 46.043C137.047 46.439 136.453 46.736 135.749 46.934C135.067 47.132 134.341 47.231 133.571 47.231C131.635 47.231 130.139 46.725 129.083 45.713C128.027 44.701 127.499 43.227 127.499 41.291V25.484H131.624V29.51H136.343V32.81H131.624V41.192C131.624 42.05 131.833 42.71 132.251 43.172C132.691 43.612 133.296 43.832 134.066 43.832C134.99 43.832 135.76 43.59 136.376 43.106L137.531 46.043ZM140.94 29.378H145.065V47H140.94V29.378ZM143.019 26.474C142.271 26.474 141.644 26.243 141.138 25.781C140.632 25.297 140.379 24.703 140.379 23.999C140.379 23.295 140.632 22.712 141.138 22.25C141.644 21.766 142.271 21.524 143.019 21.524C143.767 21.524 144.394 21.755 144.9 22.217C145.406 22.657 145.659 23.218 145.659 23.9C145.659 24.626 145.406 25.242 144.9 25.748C144.416 26.232 143.789 26.474 143.019 26.474ZM158.399 47.231C156.617 47.231 155.011 46.846 153.581 46.076C152.151 45.306 151.029 44.239 150.215 42.875C149.423 41.489 149.027 39.927 149.027 38.189C149.027 36.451 149.423 34.9 150.215 33.536C151.029 32.172 152.151 31.105 153.581 30.335C155.011 29.565 156.617 29.18 158.399 29.18C160.203 29.18 161.82 29.565 163.25 30.335C164.68 31.105 165.791 32.172 166.583 33.536C167.397 34.9 167.804 36.451 167.804 38.189C167.804 39.927 167.397 41.489 166.583 42.875C165.791 44.239 164.68 45.306 163.25 46.076C161.82 46.846 160.203 47.231 158.399 47.231ZM158.399 43.7C159.917 43.7 161.171 43.194 162.161 42.182C163.151 41.17 163.646 39.839 163.646 38.189C163.646 36.539 163.151 35.208 162.161 34.196C161.171 33.184 159.917 32.678 158.399 32.678C156.881 32.678 155.627 33.184 154.637 34.196C153.669 35.208 153.185 36.539 153.185 38.189C153.185 39.839 153.669 41.17 154.637 42.182C155.627 43.194 156.881 43.7 158.399 43.7Z" fill="white"/>
<defs>
<linearGradient id="paint0_linear_74_2847" x1="6" y1="11" x2="2904.33" y2="3009.28" gradientUnits="userSpaceOnUse">
<stop stop-color="#F5C842"/>
<stop offset="1" stop-color="#D4960A"/>
</linearGradient>
</defs>
</svg>
