<svg width="176" height="44" viewBox="0 0 176 44" fill="none" xmlns="http://www.w3.org/2000/svg">
<mask id="mask0_81_2859" style="mask-type:luminance" maskUnits="userSpaceOnUse" x="0" y="0" width="33" height="29">
<path d="M0 0H32.0357V11.2778L12.4583 29H0V0Z" fill="white"/>
</mask>
<g mask="url(#mask0_81_2859)">
<path d="M27.5863 0H4.44941C1.99207 0 0 1.8033 0 4.02778V24.9722C0 27.1967 1.99207 29 4.44941 29H27.5863C30.0437 29 32.0357 27.1967 32.0357 24.9722V4.02778C32.0357 1.8033 30.0437 0 27.5863 0Z" fill="url(#paint0_linear_81_2859)"/>
</g>
<mask id="mask1_81_2859" style="mask-type:luminance" maskUnits="userSpaceOnUse" x="8" y="7" width="37" height="34">
<path d="M32.0358 7H44.8501V41H8.54297V29L32.0358 7Z" fill="white"/>
</mask>
<g mask="url(#mask1_81_2859)">
<path d="M36.1293 7H12.9924C10.535 7 8.54297 8.86548 8.54297 11.1667V32.8333C8.54297 35.1345 10.535 37 12.9924 37H36.1293C38.5866 37 40.5787 35.1345 40.5787 32.8333V11.1667C40.5787 8.86548 38.5866 7 36.1293 7Z" fill="#1C1C1C"/>
</g>
<path opacity="0.35" d="M32.0358 7L8.54297 29" stroke="#E8B800" stroke-width="0.7"/>
<path d="M55.1126 36.33C53.3306 36.33 51.6036 36.077 49.9316 35.571C48.2816 35.065 46.9726 34.394 46.0046 33.558L47.4896 30.225C48.4356 30.973 49.5906 31.589 50.9546 32.073C52.3406 32.535 53.7266 32.766 55.1126 32.766C56.8286 32.766 58.1046 32.491 58.9406 31.941C59.7986 31.391 60.2276 30.665 60.2276 29.763C60.2276 29.103 59.9856 28.564 59.5016 28.146C59.0396 27.706 58.4456 27.365 57.7196 27.123C56.9936 26.881 56.0036 26.606 54.7496 26.298C52.9896 25.88 51.5596 25.462 50.4596 25.044C49.3816 24.626 48.4466 23.977 47.6546 23.097C46.8846 22.195 46.4996 20.985 46.4996 19.467C46.4996 18.191 46.8406 17.036 47.5226 16.002C48.2266 14.946 49.2716 14.11 50.6576 13.494C52.0656 12.878 53.7816 12.57 55.8056 12.57C57.2136 12.57 58.5996 12.746 59.9636 13.098C61.3276 13.45 62.5046 13.956 63.4946 14.616L62.1416 17.949C61.1296 17.355 60.0736 16.904 58.9736 16.596C57.8736 16.288 56.8066 16.134 55.7726 16.134C54.0786 16.134 52.8136 16.42 51.9776 16.992C51.1636 17.564 50.7566 18.323 50.7566 19.269C50.7566 19.929 50.9876 20.468 51.4496 20.886C51.9336 21.304 52.5386 21.634 53.2646 21.876C53.9906 22.118 54.9806 22.393 56.2346 22.701C57.9506 23.097 59.3586 23.515 60.4586 23.955C61.5586 24.373 62.4936 25.022 63.2636 25.902C64.0556 26.782 64.4516 27.97 64.4516 29.466C64.4516 30.742 64.0996 31.897 63.3956 32.931C62.7136 33.965 61.6686 34.79 60.2606 35.406C58.8526 36.022 57.1366 36.33 55.1126 36.33ZM75.5035 28.443L72.4345 31.347V36H68.3095V11.514H72.4345V26.298L80.9815 18.378H85.9315L78.5725 25.77L86.6245 36H81.6085L75.5035 28.443ZM105.774 18.378V36H101.847V33.723C101.165 34.559 100.318 35.186 99.3058 35.604C98.3158 36.022 97.2158 36.231 96.0058 36.231C94.2898 36.231 92.7498 35.857 91.3858 35.109C90.0438 34.361 88.9878 33.305 88.2178 31.941C87.4698 30.577 87.0958 28.993 87.0958 27.189C87.0958 25.385 87.4698 23.812 88.2178 22.47C88.9878 21.106 90.0438 20.05 91.3858 19.302C92.7498 18.554 94.2898 18.18 96.0058 18.18C97.1498 18.18 98.1948 18.378 99.1408 18.774C100.109 19.17 100.945 19.753 101.649 20.523V18.378H105.774ZM96.4678 32.7C97.9858 32.7 99.2398 32.194 100.23 31.182C101.22 30.17 101.715 28.839 101.715 27.189C101.715 25.539 101.22 24.208 100.23 23.196C99.2398 22.184 97.9858 21.678 96.4678 21.678C94.9498 21.678 93.6958 22.184 92.7058 23.196C91.7378 24.208 91.2538 25.539 91.2538 27.189C91.2538 28.839 91.7378 30.17 92.7058 31.182C93.6958 32.194 94.9498 32.7 96.4678 32.7ZM121.071 35.043C120.587 35.439 119.993 35.736 119.289 35.934C118.607 36.132 117.881 36.231 117.111 36.231C115.175 36.231 113.679 35.725 112.623 34.713C111.567 33.701 111.039 32.227 111.039 30.291V14.484H115.164V18.51H119.883V21.81H115.164V30.192C115.164 31.05 115.373 31.71 115.791 32.172C116.231 32.612 116.836 32.832 117.606 32.832C118.53 32.832 119.3 32.59 119.916 32.106L121.071 35.043ZM134.38 35.043C133.896 35.439 133.302 35.736 132.598 35.934C131.916 36.132 131.19 36.231 130.42 36.231C128.484 36.231 126.988 35.725 125.932 34.713C124.876 33.701 124.348 32.227 124.348 30.291V14.484H128.473V18.51H133.192V21.81H128.473V30.192C128.473 31.05 128.682 31.71 129.1 32.172C129.54 32.612 130.145 32.832 130.915 32.832C131.839 32.832 132.609 32.59 133.225 32.106L134.38 35.043ZM137.79 18.378H141.915V36H137.79V18.378ZM139.869 15.474C139.121 15.474 138.494 15.243 137.988 14.781C137.482 14.297 137.229 13.703 137.229 12.999C137.229 12.295 137.482 11.712 137.988 11.25C138.494 10.766 139.121 10.524 139.869 10.524C140.617 10.524 141.244 10.755 141.75 11.217C142.256 11.657 142.509 12.218 142.509 12.9C142.509 13.626 142.256 14.242 141.75 14.748C141.266 15.232 140.639 15.474 139.869 15.474ZM155.249 36.231C153.467 36.231 151.861 35.846 150.431 35.076C149.001 34.306 147.879 33.239 147.065 31.875C146.273 30.489 145.877 28.927 145.877 27.189C145.877 25.451 146.273 23.9 147.065 22.536C147.879 21.172 149.001 20.105 150.431 19.335C151.861 18.565 153.467 18.18 155.249 18.18C157.053 18.18 158.67 18.565 160.1 19.335C161.53 20.105 162.641 21.172 163.433 22.536C164.247 23.9 164.654 25.451 164.654 27.189C164.654 28.927 164.247 30.489 163.433 31.875C162.641 33.239 161.53 34.306 160.1 35.076C158.67 35.846 157.053 36.231 155.249 36.231ZM155.249 32.7C156.767 32.7 158.021 32.194 159.011 31.182C160.001 30.17 160.496 28.839 160.496 27.189C160.496 25.539 160.001 24.208 159.011 23.196C158.021 22.184 156.767 21.678 155.249 21.678C153.731 21.678 152.477 22.184 151.487 23.196C150.519 24.208 150.035 25.539 150.035 27.189C150.035 28.839 150.519 30.17 151.487 31.182C152.477 32.194 153.731 32.7 155.249 32.7Z" fill="black"/>
<defs>
<linearGradient id="paint0_linear_81_2859" x1="0" y1="0" x2="2885.69" y2="3187.76" gradientUnits="userSpaceOnUse">
<stop stop-color="#F5C842"/>
<stop offset="1" stop-color="#D4960A"/>
</linearGradient>
</defs>
</svg>
